
<svg xmlns="http://www.w3.org/2000/svg" xmlns:xlink="http://www.w3.org/1999/xlink" width="200" height="200" viewBox="0 0 200 200" fill="none">
<rect  x="9" y="2" width="181" height="183" rx="24"    fill="#E6E6E6" >
</rect>
<rect x="70" y="116" width="52" height="48"   fill="#0025DB" >
</rect>
<path d="M19 82.5C19 87.0345 19.4504 91.5026 20.3512 95.9041C21.2288 100.192 22.5201 104.351 24.2252 108.382C25.8995 112.34 27.9432 116.105 30.3563 119.677C32.747 123.216 35.4545 126.497 38.4788 129.521C41.5031 132.546 44.7845 135.253 48.323 137.644C51.8947 140.057 55.6597 142.1 59.6178 143.775C63.6485 145.48 67.8079 146.771 72.0959 147.649C76.4974 148.55 80.9654 149 85.5 149C90.0345 149 94.5026 148.55 98.9041 147.649C103.192 146.771 107.351 145.48 111.382 143.775C115.34 142.1 119.105 140.057 122.677 137.644C126.216 135.253 129.497 132.546 132.521 129.521C135.546 126.497 138.253 123.216 140.644 119.677C143.057 116.105 145.1 112.34 146.775 108.382C148.48 104.351 149.771 100.192 150.649 95.9041C151.55 91.5026 152 87.0346 152 82.5C152 77.9655 151.55 73.4974 150.649 69.0959C149.771 64.8079 148.48 60.6485 146.775 56.6178C145.1 52.6597 143.057 48.8947 140.644 45.323C138.253 41.7845 135.546 38.5031 132.521 35.4788C129.497 32.4545 126.216 29.747 122.677 27.3563C119.105 24.9432 115.34 22.8995 111.382 21.2252C107.352 19.5201 103.192 18.2288 98.9041 17.3512C94.5026 16.4504 90.0345 16 85.5 16C80.9654 16 76.4974 16.4504 72.0959 17.3512C67.8079 18.2288 63.6485 19.5201 59.6178 21.2252C55.6597 22.8995 51.8947 24.9432 48.323 27.3563C44.7845 29.747 41.5031 32.4545 38.4788 35.4788C35.4545 38.5031 32.747 41.7845 30.3563 45.323C27.9432 48.8947 25.8995 52.6597 24.2252 56.6178C22.5202 60.6485 21.2288 64.8078 20.3512 69.0959C19.4504 73.4974 19 77.9655 19 82.5ZM16 82.5C16 120.88 47.12 152 85.5 152C123.88 152 155 120.88 155 82.5C155 44.12 123.88 13 85.5 13C47.12 13 16 44.12 16 82.5Z" fill-rule="evenodd"  fill="#000000" >
</path>
<rect x="28" y="23" width="94" height="92"   fill="#C70000" >
</rect>
<rect x="122" y="115" width="52" height="48"   fill="#FFFFFF" >
</rect>
<rect  x="31" y="27" width="48" height="48" rx="24"    fill="#FFFFFF" >
</rect>
<path    stroke="rgba(166, 166, 166, 1)" stroke-width="1" stroke-linejoin="bevel"   d="M35.0574 46.8812C34.5134 44.0006 37.8079 36.3374 46.0574 32.8812C56.5134 28.5006 64.0134 32.8812 66.5574 34.843">
</path>
<path fill-rule="evenodd"  fill="rgba(0, 0, 0, 1)"  d="M120.268 85L76.1007 161.5L74.3686 164.5L169.631 164.5L167.899 161.5L123.732 85L122 82L120.268 85ZM122 88L79.5648 161.5L164.435 161.5L122 88Z">
</path>
<rect x="122" y="140" width="52" height="24"   fill="#FFE600" >
</rect>
<path    stroke="rgba(0, 0, 0, 1)" stroke-width="3"    d="M9 23.001L190 23">
</path>
<path    stroke="rgba(0, 0, 0, 1)" stroke-width="3"    d="M9 115.001L190 115">
</path>
<path    stroke="rgba(0, 0, 0, 1)" stroke-width="3"    d="M121.981 140L175.146 140.001">
</path>
<path    stroke="rgba(0, 0, 0, 1)" stroke-width="3"    d="M30 185L30.001 1.99731">
</path>
<path    stroke="rgba(0, 0, 0, 1)" stroke-width="3"    d="M123 1.99731L123.001 185.011">
</path>
<path    stroke="rgba(0, 0, 0, 1)" stroke-width="3"    d="M175 2L175.001 184">
</path>
<path    stroke="rgba(0, 0, 0, 1)" stroke-width="3"    d="M70 115L70.001 164">
</path>
<path    stroke="rgba(0, 0, 0, 1)" stroke-width="3"    d="M9 163.001L190 163">
</path>
<g >
<path     fill="#000000"  d="M38.184 111.132L37.296 112.032L33.324 112.032L33.324 103.236L37.296 103.236L38.184 104.136L38.184 111.132ZM34.452 110.916L37.056 110.916L37.056 104.352L34.452 104.352L34.452 110.916ZM39.96 112.02L38.832 112.02L38.832 106.92L39.732 106.032L40.788 106.032L40.788 107.148L39.96 107.148L39.96 112.02ZM44.412 113.148L43.176 113.148L43.176 111.612L44.412 111.612L44.412 113.148ZM47.64 103.224L50.856 103.224L51.744 104.112L51.744 111.168L50.844 112.044L47.616 112.044L46.74 111.168L46.74 104.1L47.64 103.224ZM50.616 110.94L50.616 104.328L47.856 104.328L47.856 110.94L50.616 110.94ZM58.356 104.316L54.468 104.316L54.468 107.004L57.456 107.004L58.356 107.88L58.356 111.144L57.456 112.032L53.352 112.032L53.352 110.916L57.228 110.916L57.228 108.12L54.252 108.12L53.352 107.256L53.352 104.076L54.252 103.188L58.356 103.188L58.356 104.316ZM60.852 103.224L64.068 103.224L64.956 104.112L64.956 111.168L64.056 112.044L60.828 112.044L59.952 111.168L59.952 104.1L60.852 103.224ZM63.828 110.94L63.828 104.328L61.068 104.328L61.068 110.94L63.828 110.94ZM70.428 103.224L71.544 103.224L71.544 112.032L70.428 112.032L70.428 109.116L67.44 109.116L66.552 108.228L66.552 103.224L67.656 103.224L67.656 108L70.428 108L70.428 103.224Z">
</path>
</g>
</svg>
